# xmcd
#
# Track frame offsets: 
#        150
#        2360
#        11765
#        36196
#        99860
#        121784
#        151357
#        233309
#
# Disc length: 3472 seconds
#
# Revision: 0
# Processed by: cddbd v1.5.2PL0 Copyright (c) Steve Scherf et al.
# Submitted via: ExactAudioCopy v1.1
#
DISCID=440d8e08
DTITLE=Bernard Allison - Kentucky Fried Blues
DYEAR=2003
DGENRE=Modern Electric Blues
TTITLE0=Introduction
TTITLE1=Buzz me
TTITLE2=Going down
TTITLE3=Bad Love
TTITLE4=Life is a bitch
TTITLE5=Midnight creeper
TTITLE6=Leave my girl alone
TTITLE7=Good time woman
EXTD=
EXTT0=
EXTT1=
EXTT2=
EXTT3=
EXTT4=
EXTT5=
EXTT6=
EXTT7=
PLAYORDER=
